<svg width="23" height="21" viewBox="0 0 23 21" fill="none" xmlns="http://www.w3.org/2000/svg">
<path fill-rule="evenodd" clip-rule="evenodd" d="M12.1263 8.5C11.9536 8.87399 11.5638 9.13484 11.1106 9.13484C10.4972 9.13484 10 8.65694 10 8.06742C10 7.4779 10.4972 7 11.1106 7C11.5071 7 11.855 7.19963 12.0515 7.5H20.5C20.7761 7.5 21 7.72386 21 8V16.5776C21.8549 16.815 22.5 17.5717 22.5 18.5C22.5 19.6262 21.5505 20.5 20.4286 20.5C19.3068 20.5 18.3572 19.6262 18.3572 18.5C18.3572 17.5207 19.0751 16.7323 20 16.5432V8.5H12.1263ZM4 10V15.4935L10.7551 19.2889C10.9072 19.3743 11.0928 19.3743 11.2449 19.2889L18 15.4935V10H19V15.7861C19 15.9668 18.9025 16.1335 18.7449 16.222L11.7347 20.1607C11.2785 20.4171 10.7215 20.4171 10.2653 20.1607L3.25508 16.222C3.09753 16.1335 3 15.9668 3 15.7861V10H4ZM20.4286 17.5C19.8147 17.5 19.3572 17.9694 19.3572 18.5C19.3572 19.0306 19.8147 19.5 20.4286 19.5C21.0425 19.5 21.5 19.0306 21.5 18.5C21.5 17.9694 21.0425 17.5 20.4286 17.5Z" fill="white"/>
<path fill-rule="evenodd" clip-rule="evenodd" d="M10.2005 0.912671C10.6891 0.604916 11.3109 0.604915 11.7995 0.91267L20.9369 6.66846C21.8658 7.25363 21.872 8.60576 20.9485 9.19944L11.8111 15.073C11.317 15.3906 10.683 15.3906 10.1889 15.073L1.05158 9.19944C0.128021 8.60576 0.134222 7.25363 1.06319 6.66846L10.2005 0.912671ZM11.2665 1.75879C11.1037 1.65621 10.8964 1.65621 10.7335 1.75879L1.59618 7.51458C1.28652 7.70964 1.28445 8.16035 1.59231 8.35824L10.7297 14.2318C10.8944 14.3377 11.1057 14.3377 11.2704 14.2318L20.4077 8.35824C20.7156 8.16035 20.7135 7.70964 20.4039 7.51458L11.2665 1.75879Z" fill="white"/>
</svg>
