<svg width="28" height="32" viewBox="0 0 28 32" fill="none" xmlns="http://www.w3.org/2000/svg">
<path d="M21.8421 20.4473L13.8684 25.0526L6.02628 20.5263V11.4737L7.15786 10.8158C7.57891 11.2368 8.18417 11.5 8.84207 11.5C10.1579 11.5 11.2368 10.421 11.2368 9.10525C11.2368 7.78946 10.1579 6.71051 8.84207 6.71051C7.52628 6.71051 6.44733 7.78946 6.44733 9.10525C6.44733 9.31577 6.47365 9.5263 6.52628 9.71051L4.76312 10.7368V21.2631L13.8684 26.5263L23.1052 21.1842L21.8421 20.4473ZM8.81575 7.76314C9.55259 7.76314 10.1579 8.36841 10.1579 9.10525C10.1579 9.84209 9.55259 10.4474 8.81575 10.4474C8.07891 10.4474 7.47365 9.84209 7.47365 9.10525C7.47365 8.36841 8.07891 7.76314 8.81575 7.76314Z" fill="white"/>
<path d="M13.8421 6.94738L21.5264 11.3947L22.8421 10.6842L13.8421 5.47369L11.3948 6.86843C11.6842 7.18422 11.8948 7.57896 12.0264 7.97369L13.8421 6.94738Z" fill="white"/>
<path d="M17.1316 17.5789L13.8421 19.5L10.8421 17.7368V14.2631L13.8421 12.5L16.579 14.0789L17.8421 13.3947L13.8421 11.1053L9.60529 13.5526V18.4474L13.8421 20.8947L18.3421 18.3158L17.1316 17.5789Z" fill="#ADD136"/>
<path d="M27.7105 8L13.8421 0L0 8L1.28947 8.73684L13.8684 1.47369L25.1842 8L23.1842 9.18421L24.3421 9.8421L26.421 8.71053H26.4474V23.2368L24.8421 24.1579C24.421 23.7105 23.8158 23.4474 23.1579 23.4474C21.8421 23.4474 20.7632 24.5263 20.7632 25.8421C20.7632 27.1579 21.8421 28.2368 23.1579 28.2368C24.4737 28.2368 25.5526 27.1579 25.5526 25.8421C25.5526 25.6316 25.5263 25.4474 25.4737 25.2631L27.7368 23.9474V8H27.7105ZM23.1316 27.2368C22.3947 27.2368 21.7895 26.6316 21.7895 25.8947C21.7895 25.1579 22.3947 24.5526 23.1316 24.5526C23.8684 24.5526 24.4737 25.1579 24.4737 25.8947C24.4737 26.6316 23.8684 27.2368 23.1316 27.2368Z" fill="#ADD136"/>
<path d="M19.921 27L13.8421 30.5263L2.52632 24L4.55263 22.8158L3.26316 22.0789L0 24L13.8421 32L20.5526 28.1316C20.2895 27.7895 20.0789 27.4211 19.921 27Z" fill="#ADD136"/>
<path d="M23.1316 24.5263C23.8684 24.5263 24.4737 25.1316 24.4737 25.8684C24.4737 26.6052 23.8684 27.2105 23.1316 27.2105C22.3947 27.2105 21.7895 26.6052 21.7895 25.8684C21.7631 25.1316 22.3684 24.5263 23.1316 24.5263Z" fill="#00AEEF"/>
<path d="M8.8158 7.76315C9.55264 7.76315 10.1579 8.36842 10.1579 9.10526C10.1579 9.8421 9.55264 10.4474 8.8158 10.4474C8.07896 10.4474 7.47369 9.8421 7.47369 9.10526C7.47369 8.36842 8.07896 7.76315 8.8158 7.76315Z" fill="#00AEEF"/>
</svg>
