<svg width="16" height="16" viewBox="0 0 16 16" fill="none" xmlns="http://www.w3.org/2000/svg">
<path fill-rule="evenodd" clip-rule="evenodd" d="M1.5 7.125C1.5 4.0184 4.0184 1.5 7.125 1.5C10.2316 1.5 12.75 4.0184 12.75 7.125C12.75 10.2316 10.2316 12.75 7.125 12.75C4.0184 12.75 1.5 10.2316 1.5 7.125ZM7.125 0.5C3.46611 0.5 0.5 3.46611 0.5 7.125C0.5 10.7839 3.46611 13.75 7.125 13.75C8.77447 13.75 10.2831 13.1472 11.4427 12.1499L14.6464 15.3536C14.8417 15.5488 15.1583 15.5488 15.3536 15.3536C15.5488 15.1583 15.5488 14.8417 15.3536 14.6464L12.1499 11.4427C13.1472 10.2831 13.75 8.77447 13.75 7.125C13.75 3.46611 10.7839 0.5 7.125 0.5Z" fill="white"/>
</svg>
