<svg width="20" height="19" viewBox="0 0 20 19" fill="none" xmlns="http://www.w3.org/2000/svg">
<path fill-rule="evenodd" clip-rule="evenodd" d="M12.1178 5.5098L10 1.24741L7.88222 5.5098C7.591 6.09592 7.03143 6.50248 6.384 6.59832L1.67579 7.2953L5.07514 10.6266C5.54258 11.0847 5.75632 11.7425 5.64741 12.3879L4.85536 17.081L9.07405 14.8775C9.65417 14.5744 10.3458 14.5744 10.926 14.8775L15.1447 17.081L14.3526 12.3879C14.2437 11.7425 14.4574 11.0847 14.9249 10.6266L18.3242 7.2953L13.616 6.59832C12.9686 6.50248 12.409 6.09592 12.1178 5.5098ZM10.8956 0.802448C10.5279 0.0623921 9.47216 0.0623919 9.10446 0.802448L6.98667 5.06484C6.84106 5.3579 6.56128 5.56118 6.23756 5.6091L1.52935 6.30608C0.711894 6.42709 0.385663 7.43113 0.975873 8.00952L4.37522 11.3408C4.60894 11.5699 4.71581 11.8988 4.66135 12.2214L3.8693 16.9146C3.73179 17.7294 4.58587 18.35 5.31834 17.9674L9.53703 15.7638C9.82709 15.6123 10.1729 15.6123 10.463 15.7638L14.6817 17.9674C15.4141 18.35 16.2682 17.7294 16.1307 16.9146L15.3387 12.2214C15.2842 11.8988 15.3911 11.5699 15.6248 11.3408L19.0241 8.00952C19.6144 7.43113 19.2881 6.4271 18.4707 6.30608L13.7625 5.6091C13.4387 5.56118 13.159 5.3579 13.0133 5.06484L10.8956 0.802448Z" fill="white"/>
</svg>
